PathFileType	4	(x/y/z)	S06_M20_T14
DataRate	CameraRate	NumFrames	NumMarkers	Units	OrigDataRate	OrigDataStartFrame	OrigNumFrames
240	240	9	51	mm	240	306	488
Frame#	Time	Sternum			R.Acromium			L.Acromium			Top.Head			R.ASIS			L.ASIS			R.PSIS			L.PSIS			R.Great.Tro			L.Great.Tro			R.Iliac.Crest			L.Iliac.Crest			V.Sacral			R.Thigh.Upper.Post			R.Thigh.Lower.Ant			R.Thigh.Lower.Post			R.Thigh.Upper.Ant			R.Knee.Lat			R.Knee.Med			R.Shank.Upper.Post			R.Shank.Lower.Ant			R.Shank.Lower.Post			R.Shank.Upper.Ant			R.Ankle.Lat			R.Ankle.Med			R.Heel.Upper			R.Heel.Med			R.Heel.Lat			R.Toe.Lat			R.Toe.Med			R.Toe.Tip			L.Thigh.Upper.Post			L.Thigh.Lower.Ant			L.Thigh.Lower.Post			L.Thigh.Upper.Ant			L.Knee.Lat			L.Knee.Med			L.Shank.Upper.Post			L.Shank.Lower.Ant			L.Shank.Lower.Post			L.Shank.Upper.Ant			L.Ankle.Lat			L.Ankle.Med			L.Heel.Upper			L.Heel.Med			L.Heel.Lat			L.Toe.Lat			L.Toe.Med			L.Toe.Tip			Cervical.Spine			Back			
		X1	Y1	Z1	X2	Y2	Z2	X3	Y3	Z3	X4	Y4	Z4	X5	Y5	Z5	X6	Y6	Z6	X7	Y7	Z7	X8	Y8	Z8	X9	Y9	Z9	X10	Y10	Z10	X11	Y11	Z11	X12	Y12	Z12	X13	Y13	Z13	X14	Y14	Z14	X15	Y15	Z15	X16	Y16	Z16	X17	Y17	Z17	X18	Y18	Z18	X19	Y19	Z19	X20	Y20	Z20	X21	Y21	Z21	X22	Y22	Z22	X23	Y23	Z23	X24	Y24	Z24	X25	Y25	Z25	X26	Y26	Z26	X27	Y27	Z27	X28	Y28	Z28	X29	Y29	Z29	X30	Y30	Z30	X31	Y31	Z31	X32	Y32	Z32	X33	Y33	Z33	X34	Y34	Z34	X35	Y35	Z35	X36	Y36	Z36	X37	Y37	Z37	X38	Y38	Z38	X39	Y39	Z39	X40	Y40	Z40	X41	Y41	Z41	X42	Y42	Z42	X43	Y43	Z43	X44	Y44	Z44	X45	Y45	Z45	X46	Y46	Z46	X47	Y47	Z47	X48	Y48	Z48	X49	Y49	Z49	X50	Y50	Z50	X51	Y51	Z51	

306	1.2708	47.174	1264.3	345.99	-70.411	1471.7	519.5	-105.93	1465.1	169.16	-48.104	1786.3	339.64	7.0049	1028	483.42	15.197	1021.6	228.33	-189.67	1047.4	383.09	-188.79	1045.7	302.99	-69.048	960.9	529.17	-72.245	945.41	173.04	-79.143	1103.3	509.61	-59.417	1091.2	187.56	-202.87	1012.2	348.4	-153.69	727.8	502.91	-125.05	635.01	468.78	-191.66	650.52	478	-83.286	713.71	489.84	-218.01	538.33	457.77	-200.5	545.62	331.04	-340.98	338.83	436.63	-304.66	259.31	415.05	-369.13	269.91	416.2	-276.53	328.45	436.28	-384.42	135.22	382.8	-359.91	138.85	300.84	-452.45	107.72	327.32	-447.47	75.272	297.86	-454.48	76.85	362.55	-288.23	37.905	421.24	-250.28	39.859	302.16	-188.24	43.053	355.69	75.434	714.24	193.74	145.52	660.32	259.77	89.729	626.24	214.8	121.69	750.13	236.65	111.73	539.77	234.18	136.3	556.53	356.28	172.49	316.49	247.6	258.19	292.5	239.06	204.31	251.64	264.37	224.48	354.47	229.2	320.55	145.59	254.36	324.99	180.73	341.26	289.15	66.672	308.57	311.94	54.441	344.71	313.48	46.336	283.4	453.62	152.38	230.73	459.21	190.42	341.67	503.61	240.19	279.93	-139.99	1521.6	348.73	-193.42	1245.9	353.42
307	1.275	52.633	1263.9	345.68	-65.016	1471.3	519.2	-100.72	1464.6	168.86	-42.957	1785.9	339.27	12.436	1027.5	483.28	20.674	1021.1	228.16	-184.2	1047	382.98	-183.33	1045.3	302.85	-63.817	960.47	529.06	-66.837	944.93	172.91	-73.654	1102.9	509.45	-53.993	1090.6	187.4	-197.44	1011.8	348.27	-149.11	727.65	502.98	-120.71	634.75	468.93	-187.28	650.46	478.11	-78.739	713.34	489.94	-213.99	538.31	457.88	-196.34	545.48	331.19	-338.38	339.66	436.93	-302.63	259.84	415.21	-367.1	270.93	416.51	-274.09	328.76	436.29	-383.47	136.39	383.08	-358.84	139.85	301.07	-451.59	109.47	327.66	-446.93	77.031	298.11	-453.88	78.513	362.82	-288	37.992	421.32	-250.08	39.932	302.19	-188.1	42.918	355.72	81.05	713.89	193.98	151.04	660.08	260.18	95.383	625.91	215.12	127.2	749.85	236.95	117.33	539.4	234.5	141.84	556.33	356.58	177.41	315.89	248.18	263.03	291.64	239.7	209.03	250.99	265.05	229.5	353.68	229.74	325.02	144.65	255.16	329.45	179.85	342.03	293.58	65.759	309.43	316.3	53.58	345.6	317.9	45.41	284.29	458.05	151.43	231.64	463.48	189.64	342.54	507.95	239.32	280.79	-134.73	1521.1	348.46	-187.99	1245.3	353.28
308	1.2792	58.116	1263.5	345.36	-59.602	1470.9	518.9	-95.487	1464	168.56	-37.806	1785.4	338.9	17.901	1027	483.13	26.208	1020.6	227.98	-178.69	1046.6	382.87	-177.82	1044.9	302.72	-58.553	960.06	528.95	-61.374	944.5	172.77	-68.125	1102.5	509.28	-48.526	1090.1	187.23	-191.95	1011.4	348.15	-144.48	727.51	503.05	-116.3	634.5	469.09	-182.84	650.4	478.21	-74.135	712.99	490.05	-209.89	538.31	457.99	-192.09	545.36	331.35	-335.72	340.52	437.24	-300.55	260.41	415.39	-365.02	271.98	416.83	-271.59	329.11	436.31	-382.46	137.6	383.38	-357.74	140.89	301.32	-450.69	111.29	328.01	-446.36	78.864	298.36	-453.24	80.242	363.09	-287.76	38.083	421.4	-249.88	40.012	302.22	-187.96	42.787	355.75	86.755	713.6	194.21	156.65	659.89	260.58	101.12	625.64	215.41	132.8	749.62	237.25	122.99	539.06	234.78	147.45	556.14	356.83	182.18	315.27	248.71	267.68	290.69	240.32	213.52	250.28	265.69	234.41	352.83	230.27	329.14	143.57	255.94	333.59	178.79	342.81	297.55	64.744	310.26	320.19	52.581	346.44	321.84	44.374	285.13	462.14	150.21	232.55	467.44	188.51	343.45	512.04	238.06	281.71	-129.45	1520.6	348.17	-182.53	1244.8	353.14
309	1.2833	63.624	1263.1	345.04	-54.168	1470.6	518.59	-90.239	1463.5	168.25	-32.653	1785	338.53	23.4	1026.6	482.99	31.803	1020.2	227.8	-173.14	1046.2	382.76	-172.26	1044.5	302.59	-53.254	959.68	528.84	-55.851	944.11	172.64	-62.556	1102.1	509.12	-43.014	1089.7	187.07	-186.42	1011	348.02	-139.79	727.39	503.13	-111.83	634.28	469.25	-178.33	650.36	478.32	-69.473	712.67	490.17	-205.72	538.31	458.1	-187.75	545.25	331.51	-333	341.41	437.57	-298.41	261	415.58	-362.89	273.08	417.15	-269.02	329.47	436.34	-381.39	138.86	383.67	-356.59	141.98	301.57	-449.74	113.19	328.37	-445.74	80.773	298.62	-452.55	82.04	363.37	-287.51	38.18	421.49	-249.67	40.098	302.25	-187.82	42.66	355.78	92.54	713.37	194.44	162.33	659.74	260.96	106.94	625.42	215.68	138.49	749.43	237.55	128.69	538.74	235.03	153.12	555.96	357.03	186.79	314.63	249.19	272.17	289.63	240.93	217.79	249.52	266.28	239.22	351.91	230.79	332.93	142.35	256.72	337.42	177.55	343.58	301.09	63.645	311.07	323.65	51.462	347.24	325.31	43.244	285.92	465.89	148.72	233.46	471.1	187.05	344.38	515.9	236.45	282.68	-124.16	1520.2	347.89	-177.04	1244.3	353
310	1.2875	69.156	1262.8	344.72	-48.715	1470.2	518.27	-84.973	1463	167.93	-27.497	1784.6	338.15	28.935	1026.2	482.84	37.463	1019.8	227.63	-167.55	1045.9	382.65	-166.65	1044.1	302.46	-47.92	959.33	528.74	-50.26	943.77	172.51	-56.949	1101.8	508.97	-37.454	1089.2	186.9	-180.83	1010.7	347.9	-135.04	727.28	503.21	-107.28	634.07	469.42	-173.76	650.33	478.43	-64.753	712.37	490.31	-201.48	538.33	458.22	-183.33	545.16	331.67	-330.23	342.34	437.9	-296.22	261.63	415.77	-360.7	274.21	417.47	-266.38	329.87	436.39	-380.26	140.16	383.97	-355.39	143.1	301.83	-448.74	115.15	328.72	-445.06	82.76	298.87	-451.82	83.908	363.66	-287.25	38.282	421.57	-249.44	40.191	302.28	-187.68	42.536	355.8	98.395	713.18	194.66	168.07	659.61	261.32	112.8	625.24	215.92	144.26	749.27	237.84	134.41	538.44	235.26	158.82	555.78	357.19	191.26	313.97	249.62	276.49	288.49	241.54	221.86	248.72	266.82	243.91	350.93	231.29	336.41	141.01	257.48	340.96	176.15	344.36	304.23	62.48	311.84	326.71	50.241	348	328.35	42.039	286.66	469.33	147	234.37	474.5	185.29	345.34	519.54	234.51	283.71	-118.85	1519.7	347.59	-171.52	1243.8	352.86
311	1.2917	74.712	1262.5	344.4	-43.243	1470	517.94	-79.687	1462.6	167.61	-22.341	1784.3	337.76	34.506	1025.8	482.69	43.192	1019.5	227.45	-161.92	1045.6	382.54	-160.98	1043.8	302.32	-42.548	958.99	528.63	-44.593	943.47	172.37	-51.305	1101.4	508.81	-31.841	1088.8	186.74	-175.19	1010.3	347.77	-130.24	727.19	503.3	-102.67	633.89	469.59	-169.11	650.31	478.55	-59.972	712.1	490.45	-197.15	538.36	458.33	-178.81	545.07	331.83	-327.4	343.31	438.24	-293.98	262.29	415.97	-358.45	275.38	417.79	-263.67	330.29	436.45	-379.06	141.52	384.26	-354.14	144.27	302.1	-447.68	117.19	329.08	-444.34	84.826	299.13	-451.04	85.848	363.94	-286.97	38.39	421.66	-249.21	40.29	302.32	-187.53	42.417	355.82	104.31	713.04	194.87	173.87	659.48	261.64	118.7	625.09	216.13	150.1	749.13	238.11	140.15	538.14	235.45	164.53	555.58	357.31	195.59	313.28	250	280.65	287.27	242.13	225.73	247.86	267.31	248.49	349.9	231.79	339.62	139.56	258.22	344.23	174.61	345.12	307	61.275	312.59	329.38	48.938	348.71	331	40.781	287.36	472.49	145.06	235.28	477.64	183.25	346.32	522.97	232.28	284.77	-113.53	1519.3	347.28	-165.97	1243.3	352.72
312	1.2958	80.294	1262.2	344.07	-37.752	1469.7	517.6	-74.38	1462.2	167.27	-17.184	1784	337.37	40.112	1025.4	482.55	48.993	1019.2	227.28	-156.25	1045.3	382.41	-155.26	1043.5	302.18	-37.138	958.68	528.53	-38.845	943.22	172.24	-45.625	1101.1	508.66	-26.171	1088.5	186.59	-169.49	1010	347.64	-125.37	727.12	503.39	-97.985	633.72	469.78	-164.4	650.3	478.66	-55.13	711.85	490.61	-192.74	538.39	458.45	-174.19	544.99	331.99	-324.5	344.31	438.58	-291.67	262.98	416.18	-356.14	276.59	418.1	-260.88	330.75	436.52	-377.8	142.92	384.56	-352.83	145.47	302.38	-446.56	119.31	329.44	-443.55	86.971	299.39	-450.21	87.863	364.22	-286.68	38.504	421.74	-248.96	40.394	302.36	-187.38	42.303	355.84	110.26	712.91	195.08	179.7	659.36	261.94	124.63	624.97	216.33	156.02	749	238.37	145.87	537.84	235.63	170.25	555.37	357.39	199.79	312.57	250.33	284.68	285.98	242.72	229.42	246.97	267.75	252.98	348.82	232.27	342.57	138.02	258.95	347.26	172.94	345.89	309.44	60.053	313.3	331.72	47.58	349.38	333.27	39.493	288	475.39	142.94	236.19	480.56	180.96	347.32	526.22	229.79	285.88	-108.19	1518.9	346.97	-160.39	1242.9	352.58
313	1.3	85.9	1262	343.75	-32.245	1469.5	517.26	-69.05	1461.8	166.93	-12.027	1783.7	336.97	45.755	1025.1	482.41	54.867	1018.9	227.12	-150.53	1045	382.28	-149.48	1043.2	302.04	-31.689	958.39	528.43	-33.007	943.01	172.1	-39.911	1100.8	508.51	-20.442	1088.1	186.43	-163.73	1009.8	347.49	-120.45	727.06	503.49	-93.226	633.57	469.97	-159.62	650.3	478.76	-50.225	711.62	490.78	-188.25	538.44	458.57	-169.47	544.91	332.16	-321.54	345.35	438.92	-289.3	263.71	416.4	-353.75	277.84	418.39	-258.02	331.22	436.61	-376.46	144.38	384.85	-351.44	146.72	302.66	-445.37	121.5	329.79	-442.7	89.199	299.64	-449.32	89.954	364.5	-286.37	38.623	421.82	-248.7	40.503	302.4	-187.23	42.194	355.85	116.25	712.81	195.27	185.56	659.22	262.21	130.54	624.85	216.5	161.99	748.85	238.6	151.56	537.52	235.78	175.95	555.12	357.43	203.87	311.84	250.6	288.57	284.64	243.31	232.96	246.04	268.14	257.37	347.7	232.74	345.3	136.4	259.67	350.07	171.18	346.64	311.59	58.843	313.99	333.74	46.19	350.02	335.22	38.202	288.6	478.05	140.66	237.08	483.28	178.46	348.33	529.31	227.06	287.02	-102.84	1518.5	346.65	-154.78	1242.4	352.43
314	1.3042	91.533	1261.8	343.44	-26.723	1469.3	516.91	-63.697	1461.4	166.59	-6.8686	1783.4	336.57	51.433	1024.8	482.27	60.817	1018.7	226.97	-144.76	1044.7	382.13	-143.63	1042.9	301.88	-26.199	958.12	528.32	-27.074	942.84	171.95	-34.165	1100.6	508.36	-14.648	1087.9	186.28	-157.92	1009.5	347.34	-115.46	727.02	503.59	-88.389	633.44	470.17	-154.76	650.32	478.87	-45.253	711.42	490.97	-183.66	538.5	458.7	-164.63	544.84	332.33	-318.5	346.42	439.25	-286.86	264.48	416.62	-351.28	279.14	418.68	-255.07	331.73	436.72	-375.05	145.88	385.15	-349.99	148	302.95	-444.1	123.76	330.13	-441.78	91.509	299.88	-448.37	92.124	364.77	-286.05	38.75	421.89	-248.43	40.616	302.44	-187.07	42.091	355.86	122.25	712.7	195.46	191.42	659.04	262.44	136.44	624.73	216.66	168.02	748.69	238.81	157.22	537.19	235.91	181.61	554.84	357.45	207.84	311.09	250.84	292.35	283.25	243.88	236.35	245.07	268.48	261.67	346.55	233.21	347.84	134.73	260.37	352.7	169.32	347.39	313.49	57.672	314.65	335.49	44.796	350.61	336.89	36.932	289.16	480.52	138.24	237.96	485.83	175.77	349.34	532.26	224.14	288.18	-97.463	1518.2	346.31	-149.14	1242	352.28
